<svg width="160" height="150" viewBox="0 0 160 150" fill="none" xmlns="http://www.w3.org/2000/svg">
<path d="M90 135.937C88.9805 135.935 87.986 135.641 87.15 135.094L37.15 102.281C36.4877 101.85 35.9463 101.276 35.5719 100.607C35.1975 99.9374 35.0013 99.1932 35 98.4375V51.5625C35.0013 50.8068 35.1975 50.0626 35.5719 49.3933C35.9463 48.724 36.4877 48.1495 37.15 47.7188L87.15 14.9062C87.8789 14.4439 88.725 14.17 89.603 14.1124C90.4809 14.0548 91.3595 14.2154 92.15 14.5781C92.9933 14.9546 93.7072 15.5449 94.2109 16.2822C94.7146 17.0196 94.988 17.8745 95 18.75V131.25C95.0019 132.111 94.751 132.955 94.2747 133.691C93.7984 134.427 93.1152 135.026 92.3 135.422C91.5883 135.764 90.7996 135.941 90 135.937ZM45 96L85 122.25V27.75L45 54V96Z" fill="#EBEFF3"/>
<path d="M40 103.125H20C16.0218 103.125 12.2064 101.643 9.3934 99.0062C6.58035 96.369 5 92.7921 5 89.0625V60.9375C5 57.2079 6.58035 53.631 9.3934 50.9938C12.2064 48.3566 16.0218 46.875 20 46.875H40C41.3261 46.875 42.5979 47.3689 43.5355 48.2479C44.4732 49.127 45 50.3193 45 51.5625V98.4375C45 99.6807 44.4732 100.873 43.5355 101.752C42.5979 102.631 41.3261 103.125 40 103.125ZM20 56.25C18.6739 56.25 17.4021 56.7439 16.4645 57.6229C15.5268 58.502 15 59.6943 15 60.9375V89.0625C15 90.3057 15.5268 91.498 16.4645 92.3771C17.4021 93.2561 18.6739 93.75 20 93.75H35V56.25H20Z" fill="#EBEFF3"/>
<path d="M111.116 51.7917L104.045 58.4208L146.472 98.1956L153.543 91.5664L111.116 51.7917Z" fill="#EBEFF3"/>
<path d="M146.472 51.7917L104.045 91.5664L111.116 98.1956L153.543 58.4208L146.472 51.7917Z" fill="#EBEFF3"/>
</svg>
