<svg width="160" height="150" viewBox="0 0 160 150" fill="none" xmlns="http://www.w3.org/2000/svg">
<path d="M90 135.937C88.9805 135.935 87.986 135.641 87.15 135.094L37.15 102.281C36.4877 101.85 35.9463 101.276 35.5719 100.607C35.1975 99.9374 35.0013 99.1932 35 98.4375V51.5625C35.0013 50.8068 35.1975 50.0626 35.5719 49.3933C35.9463 48.724 36.4877 48.1495 37.15 47.7188L87.15 14.9063C87.8789 14.4439 88.725 14.17 89.603 14.1124C90.4809 14.0548 91.3595 14.2154 92.15 14.5781C92.9933 14.9546 93.7072 15.5449 94.2109 16.2822C94.7146 17.0196 94.988 17.8745 95 18.75V131.25C95.0019 132.111 94.751 132.955 94.2747 133.691C93.7984 134.427 93.1152 135.026 92.3 135.422C91.5883 135.764 90.7996 135.941 90 135.937ZM45 96L85 122.25V27.75L45 54V96Z" fill="#EBEFF3"/>
<path d="M40 103.125H20C16.0218 103.125 12.2064 101.643 9.3934 99.0062C6.58035 96.369 5 92.7921 5 89.0625V60.9375C5 57.2079 6.58035 53.631 9.3934 50.9938C12.2064 48.3566 16.0218 46.875 20 46.875H40C41.3261 46.875 42.5979 47.3689 43.5355 48.2479C44.4732 49.127 45 50.3193 45 51.5625V98.4375C45 99.6807 44.4732 100.873 43.5355 101.752C42.5979 102.631 41.3261 103.125 40 103.125ZM20 56.25C18.6739 56.25 17.4021 56.7439 16.4645 57.6229C15.5268 58.502 15 59.6943 15 60.9375V89.0625C15 90.3057 15.5268 91.498 16.4645 92.3771C17.4021 93.2561 18.6739 93.75 20 93.75H35V56.25H20Z" fill="#EBEFF3"/>
<path d="M90 98.4375V89.0625C92.9648 89.0601 95.8623 88.234 98.3266 86.6886C100.791 85.1432 102.712 82.9479 103.846 80.3798C104.98 77.8118 105.277 74.9862 104.699 72.2599C104.122 69.5337 102.695 67.0291 100.6 65.0625L107.7 58.4062C111.205 61.6842 113.594 65.8641 114.562 70.4161C115.53 74.968 115.035 79.687 113.139 83.9748C111.243 88.2627 108.032 91.9262 103.913 94.5009C99.7932 97.0757 94.951 98.4458 90 98.4375Z" fill="#EBEFF3"/>
<path d="M132.4 119.438C131.742 119.441 131.09 119.323 130.48 119.09C129.871 118.856 129.317 118.513 128.85 118.078C128.381 117.642 128.009 117.124 127.756 116.553C127.502 115.981 127.371 115.369 127.371 114.75C127.371 114.131 127.502 113.519 127.756 112.947C128.009 112.376 128.381 111.858 128.85 111.422C139.14 101.755 144.918 88.6565 144.918 75C144.918 61.3435 139.14 48.2448 128.85 38.5781C128.384 38.1411 128.014 37.6222 127.762 37.0512C127.509 36.4801 127.38 35.8681 127.38 35.25C127.38 34.6319 127.509 34.0199 127.762 33.4488C128.014 32.8778 128.384 32.3589 128.85 31.9219C129.316 31.4848 129.87 31.1381 130.479 30.9016C131.088 30.6651 131.741 30.5433 132.4 30.5433C133.059 30.5433 133.712 30.6651 134.321 30.9016C134.93 31.1381 135.484 31.4848 135.95 31.9219C148.133 43.349 154.976 58.8439 154.976 75C154.976 91.1561 148.133 106.651 135.95 118.078C135.483 118.513 134.929 118.856 134.32 119.09C133.71 119.323 133.058 119.441 132.4 119.438Z" fill="#EBEFF3"/>
<path d="M118.25 106.172C116.938 106.167 115.681 105.678 114.75 104.812C113.926 103.916 113.493 102.761 113.54 101.579C113.586 100.397 114.108 99.2744 115 98.4375C118.25 95.3905 120.829 91.7732 122.588 87.7919C124.347 83.8107 125.253 79.5436 125.253 75.2344C125.253 70.9251 124.347 66.658 122.588 62.6768C120.829 58.6956 118.25 55.0782 115 52.0312C114.181 51.1345 113.753 49.981 113.801 48.8013C113.85 47.6216 114.372 46.5025 115.262 45.6677C116.153 44.8329 117.346 44.3438 118.605 44.2982C119.863 44.2527 121.093 44.6539 122.05 45.4219C130.477 53.332 135.21 64.0546 135.21 75.2344C135.21 86.4141 130.477 97.1367 122.05 105.047C121.533 105.469 120.928 105.786 120.275 105.98C119.621 106.173 118.932 106.239 118.25 106.172Z" fill="#EBEFF3"/>
</svg>
